<svg width="22" height="14" viewBox="0 0 22 14" fill="none" xmlns="http://www.w3.org/2000/svg">
<path d="M0 1.5C0 1.10218 0.158035 0.720644 0.43934 0.43934C0.720644 0.158035 1.10218 0 1.5 0H4.5C4.89782 0 5.27936 0.158035 5.56066 0.43934C5.84196 0.720644 6 1.10218 6 1.5V4.5C6 4.89782 5.84196 5.27936 5.56066 5.56066C5.27936 5.84196 4.89782 6 4.5 6H1.5C1.10218 6 0.720644 5.84196 0.43934 5.56066C0.158035 5.27936 0 4.89782 0 4.5V1.5ZM1.5 1C1.36739 1 1.24021 1.05268 1.14645 1.14645C1.05268 1.24021 1 1.36739 1 1.5V4.5C1 4.63261 1.05268 4.75979 1.14645 4.85355C1.24021 4.94732 1.36739 5 1.5 5H4.5C4.63261 5 4.75979 4.94732 4.85355 4.85355C4.94732 4.75979 5 4.63261 5 4.5V1.5C5 1.36739 4.94732 1.24021 4.85355 1.14645C4.75979 1.05268 4.63261 1 4.5 1H1.5ZM8 1.5C8 1.10218 8.15804 0.720644 8.43934 0.43934C8.72064 0.158035 9.10218 0 9.5 0H12.5C12.8978 0 13.2794 0.158035 13.5607 0.43934C13.842 0.720644 14 1.10218 14 1.5V4.5C14 4.89782 13.842 5.27936 13.5607 5.56066C13.2794 5.84196 12.8978 6 12.5 6H9.5C9.10218 6 8.72064 5.84196 8.43934 5.56066C8.15804 5.27936 8 4.89782 8 4.5V1.5ZM9.5 1C9.36739 1 9.24021 1.05268 9.14645 1.14645C9.05268 1.24021 9 1.36739 9 1.5V4.5C9 4.63261 9.05268 4.75979 9.14645 4.85355C9.24021 4.94732 9.36739 5 9.5 5H12.5C12.6326 5 12.7598 4.94732 12.8536 4.85355C12.9473 4.75979 13 4.63261 13 4.5V1.5C13 1.36739 12.9473 1.24021 12.8536 1.14645C12.7598 1.05268 12.6326 1 12.5 1H9.5ZM0 9.5C0 9.10218 0.158035 8.72064 0.43934 8.43934C0.720644 8.15804 1.10218 8 1.5 8H4.5C4.89782 8 5.27936 8.15804 5.56066 8.43934C5.84196 8.72064 6 9.10218 6 9.5V12.5C6 12.8978 5.84196 13.2794 5.56066 13.5607C5.27936 13.842 4.89782 14 4.5 14H1.5C1.10218 14 0.720644 13.842 0.43934 13.5607C0.158035 13.2794 0 12.8978 0 12.5V9.5ZM1.5 9C1.36739 9 1.24021 9.05268 1.14645 9.14645C1.05268 9.24021 1 9.36739 1 9.5V12.5C1 12.6326 1.05268 12.7598 1.14645 12.8536C1.24021 12.9473 1.36739 13 1.5 13H4.5C4.63261 13 4.75979 12.9473 4.85355 12.8536C4.94732 12.7598 5 12.6326 5 12.5V9.5C5 9.36739 4.94732 9.24021 4.85355 9.14645C4.75979 9.05268 4.63261 9 4.5 9H1.5ZM8 9.5C8 9.10218 8.15804 8.72064 8.43934 8.43934C8.72064 8.15804 9.10218 8 9.5 8H12.5C12.8978 8 13.2794 8.15804 13.5607 8.43934C13.842 8.72064 14 9.10218 14 9.5V12.5C14 12.8978 13.842 13.2794 13.5607 13.5607C13.2794 13.842 12.8978 14 12.5 14H9.5C9.10218 14 8.72064 13.842 8.43934 13.5607C8.15804 13.2794 8 12.8978 8 12.5V9.5ZM9.5 9C9.36739 9 9.24021 9.05268 9.14645 9.14645C9.05268 9.24021 9 9.36739 9 9.5V12.5C9 12.6326 9.05268 12.7598 9.14645 12.8536C9.24021 12.9473 9.36739 13 9.5 13H12.5C12.6326 13 12.7598 12.9473 12.8536 12.8536C12.9473 12.7598 13 12.6326 13 12.5V9.5C13 9.36739 12.9473 9.24021 12.8536 9.14645C12.7598 9.05268 12.6326 9 12.5 9H9.5Z" fill="white"/>
<path d="M16 1.5C16 1.10218 16.158 0.720644 16.4393 0.43934C16.7206 0.158035 17.1022 0 17.5 0H20.5C20.8978 0 21.2794 0.158035 21.5607 0.43934C21.842 0.720644 22 1.10218 22 1.5V4.5C22 4.89782 21.842 5.27936 21.5607 5.56066C21.2794 5.84196 20.8978 6 20.5 6H17.5C17.1022 6 16.7206 5.84196 16.4393 5.56066C16.158 5.27936 16 4.89782 16 4.5V1.5ZM17.5 1C17.3674 1 17.2402 1.05268 17.1464 1.14645C17.0527 1.24021 17 1.36739 17 1.5V4.5C17 4.63261 17.0527 4.75979 17.1464 4.85355C17.2402 4.94732 17.3674 5 17.5 5H20.5C20.6326 5 20.7598 4.94732 20.8536 4.85355C20.9473 4.75979 21 4.63261 21 4.5V1.5C21 1.36739 20.9473 1.24021 20.8536 1.14645C20.7598 1.05268 20.6326 1 20.5 1H17.5ZM16 9.5C16 9.10218 16.158 8.72064 16.4393 8.43934C16.7206 8.15804 17.1022 8 17.5 8H20.5C20.8978 8 21.2794 8.15804 21.5607 8.43934C21.842 8.72064 22 9.10218 22 9.5V12.5C22 12.8978 21.842 13.2794 21.5607 13.5607C21.2794 13.842 20.8978 14 20.5 14H17.5C17.1022 14 16.7206 13.842 16.4393 13.5607C16.158 13.2794 16 12.8978 16 12.5V9.5ZM17.5 9C17.3674 9 17.2402 9.05268 17.1464 9.14645C17.0527 9.24021 17 9.36739 17 9.5V12.5C17 12.6326 17.0527 12.7598 17.1464 12.8536C17.2402 12.9473 17.3674 13 17.5 13H20.5C20.6326 13 20.7598 12.9473 20.8536 12.8536C20.9473 12.7598 21 12.6326 21 12.5V9.5C21 9.36739 20.9473 9.24021 20.8536 9.14645C20.7598 9.05268 20.6326 9 20.5 9H17.5Z" fill="white"/>
</svg>
