<svg width="16" height="19" viewBox="0 0 16 19" fill="none" xmlns="http://www.w3.org/2000/svg">
<path d="M5 12.8984C6.10457 12.8984 7 12.003 7 10.8984C7 9.79387 6.10457 8.89844 5 8.89844C3.89543 8.89844 3 9.79387 3 10.8984C3 12.003 3.89543 12.8984 5 12.8984Z" fill="white"/>
<path d="M13.5 9.89844H9.5C9.2 9.89844 9 10.0984 9 10.3984C9 10.6984 9.2 10.8984 9.5 10.8984H13.5C13.8 10.8984 14 10.6984 14 10.3984C14 10.0984 13.8 9.89844 13.5 9.89844Z" fill="white"/>
<path d="M13.5 12.3984H9.5C9.2 12.3984 9 12.5984 9 12.8984C9 13.1984 9.2 13.3984 9.5 13.3984H13.5C13.8 13.3984 14 13.1984 14 12.8984C14 12.5984 13.8 12.3984 13.5 12.3984Z" fill="white"/>
<path d="M13.5 14.8984H10.5C10.2 14.8984 10 15.0984 10 15.3984C10 15.6984 10.2 15.8984 10.5 15.8984H13.5C13.8 15.8984 14 15.6984 14 15.3984C14 15.0984 13.8 14.8984 13.5 14.8984Z" fill="white"/>
<path d="M15 7.2V6.3C15 5.6 14.6 4.9 14 4.6V4C14 3.3 13.6 2.6 13 2.3V2C13 0.9 12.1 0 11 0H5C3.9 0 3 0.9 3 2V2.3C2.4 2.6 2 3.3 2 4V4.6C1.4 4.9 1 5.6 1 6.3V7.2C0.4 7.5 0 8.2 0 8.9V16.9C0 18 0.9 18.9 2 18.9H14C15.1 18.9 16 18 16 16.9V8.9C16 8.2 15.6 7.5 15 7.2ZM4 2C4 1.4 4.4 1 5 1H11C11.6 1 12 1.4 12 2H4ZM3 4C3 3.4 3.4 3 4 3H12C12.6 3 13 3.4 13 4V4.3H3V4ZM2 6.3C2 5.7 2.4 5.3 3 5.3H13C13.6 5.3 14 5.7 14 6.3V6.9H2V6.3ZM15 16.9C15 17.5 14.6 17.9 14 17.9H9V17.4C9 15.5 7.2 13.9 5 13.9C2.8 13.9 1.2 15.3 1 17.1V8.9C1 8.3 1.4 7.9 2 7.9H14C14.6 7.9 15 8.3 15 8.9V16.9Z" fill="white"/>
</svg>
