<svg width="11" height="10" viewBox="0 0 11 10" fill="none" xmlns="http://www.w3.org/2000/svg">
<path d="M10.7521 5.58831C11.0826 5.26292 11.0826 4.73448 10.7521 4.40908L6.52187 0.244045C6.19138 -0.0813484 5.65467 -0.0813484 5.32418 0.244045C4.99369 0.569439 4.99369 1.09788 5.32418 1.42327L8.95692 5L5.32682 8.57673C4.99633 8.90212 4.99633 9.43056 5.32682 9.75595C5.65731 10.0813 6.19403 10.0813 6.52452 9.75595L10.7548 5.59091L10.7521 5.58831ZM1.44556 9.75335L5.67582 5.58831C6.00631 5.26292 6.00631 4.73448 5.67582 4.40908L1.44556 0.244045C1.11507 -0.0813484 0.578356 -0.0813484 0.247867 0.244045C-0.0826223 0.569439 -0.0826223 1.09788 0.247867 1.42327L3.8806 5L0.250511 8.57673C-0.0799784 8.90212 -0.0799784 9.43056 0.250511 9.75595C0.581 10.0813 1.11771 10.0813 1.4482 9.75595L1.44556 9.75335Z" fill="white"/>
</svg>
