<svg width="16" height="14" viewBox="0 0 16 14" fill="none" xmlns="http://www.w3.org/2000/svg">
<path d="M14.0323 1.34965C14.1606 1.34965 14.2837 1.4063 14.3744 1.50712C14.4651 1.60795 14.5161 1.7447 14.5161 1.88729V11.5647C14.5161 11.7073 14.4651 11.844 14.3744 11.9449C14.2837 12.0457 14.1606 12.1023 14.0323 12.1023H1.45161C1.32328 12.1023 1.20021 12.0457 1.10946 11.9449C1.01872 11.844 0.967742 11.7073 0.967742 11.5647V1.88729C0.967742 1.7447 1.01872 1.60795 1.10946 1.50712C1.20021 1.4063 1.32328 1.34965 1.45161 1.34965H14.0323ZM1.45161 0.274384C1.06662 0.274384 0.697398 0.444314 0.425168 0.746792C0.152937 1.04927 0 1.45952 0 1.88729L0 11.5647C0 11.9925 0.152937 12.4027 0.425168 12.7052C0.697398 13.0077 1.06662 13.1776 1.45161 13.1776H14.0323C14.4172 13.1776 14.7865 13.0077 15.0587 12.7052C15.3309 12.4027 15.4839 11.9925 15.4839 11.5647V1.88729C15.4839 1.45952 15.3309 1.04927 15.0587 0.746792C14.7865 0.444314 14.4172 0.274384 14.0323 0.274384H1.45161Z" fill="white"/>
<path d="M4.83783 6.72487C4.83783 6.58228 4.88881 6.44553 4.97955 6.3447C5.07029 6.24388 5.19337 6.18723 5.3217 6.18723H12.0959C12.2242 6.18723 12.3473 6.24388 12.438 6.3447C12.5288 6.44553 12.5798 6.58228 12.5798 6.72487C12.5798 6.86746 12.5288 7.00421 12.438 7.10503C12.3473 7.20586 12.2242 7.2625 12.0959 7.2625H5.3217C5.19337 7.2625 5.07029 7.20586 4.97955 7.10503C4.88881 7.00421 4.83783 6.86746 4.83783 6.72487ZM4.83783 4.0367C4.83783 3.89411 4.88881 3.75736 4.97955 3.65653C5.07029 3.55571 5.19337 3.49906 5.3217 3.49906H12.0959C12.2242 3.49906 12.3473 3.55571 12.438 3.65653C12.5288 3.75736 12.5798 3.89411 12.5798 4.0367C12.5798 4.17929 12.5288 4.31603 12.438 4.41686C12.3473 4.51769 12.2242 4.57433 12.0959 4.57433H5.3217C5.19337 4.57433 5.07029 4.51769 4.97955 4.41686C4.88881 4.31603 4.83783 4.17929 4.83783 4.0367ZM4.83783 9.41304C4.83783 9.27045 4.88881 9.1337 4.97955 9.03288C5.07029 8.93205 5.19337 8.87541 5.3217 8.87541H12.0959C12.2242 8.87541 12.3473 8.93205 12.438 9.03288C12.5288 9.1337 12.5798 9.27045 12.5798 9.41304C12.5798 9.55563 12.5288 9.69238 12.438 9.79321C12.3473 9.89403 12.2242 9.95068 12.0959 9.95068H5.3217C5.19337 9.95068 5.07029 9.89403 4.97955 9.79321C4.88881 9.69238 4.83783 9.55563 4.83783 9.41304ZM3.87009 4.0367C3.87009 4.17929 3.81911 4.31603 3.72836 4.41686C3.63762 4.51769 3.51455 4.57433 3.38621 4.57433C3.25788 4.57433 3.13481 4.51769 3.04407 4.41686C2.95332 4.31603 2.90234 4.17929 2.90234 4.0367C2.90234 3.89411 2.95332 3.75736 3.04407 3.65653C3.13481 3.55571 3.25788 3.49906 3.38621 3.49906C3.51455 3.49906 3.63762 3.55571 3.72836 3.65653C3.81911 3.75736 3.87009 3.89411 3.87009 4.0367ZM3.87009 6.72487C3.87009 6.86746 3.81911 7.00421 3.72836 7.10503C3.63762 7.20586 3.51455 7.2625 3.38621 7.2625C3.25788 7.2625 3.13481 7.20586 3.04407 7.10503C2.95332 7.00421 2.90234 6.86746 2.90234 6.72487C2.90234 6.58228 2.95332 6.44553 3.04407 6.3447C3.13481 6.24388 3.25788 6.18723 3.38621 6.18723C3.51455 6.18723 3.63762 6.24388 3.72836 6.3447C3.81911 6.44553 3.87009 6.58228 3.87009 6.72487ZM3.87009 9.41304C3.87009 9.55563 3.81911 9.69238 3.72836 9.79321C3.63762 9.89403 3.51455 9.95068 3.38621 9.95068C3.25788 9.95068 3.13481 9.89403 3.04407 9.79321C2.95332 9.69238 2.90234 9.55563 2.90234 9.41304C2.90234 9.27045 2.95332 9.1337 3.04407 9.03288C3.13481 8.93205 3.25788 8.87541 3.38621 8.87541C3.51455 8.87541 3.63762 8.93205 3.72836 9.03288C3.81911 9.1337 3.87009 9.27045 3.87009 9.41304Z" fill="white"/>
</svg>
