<svg width="14" height="14" viewBox="0 0 14 14" fill="none" xmlns="http://www.w3.org/2000/svg">
<path d="M0.275425 0.275425C0.362511 0.188119 0.465965 0.118851 0.579862 0.0715891C0.693759 0.024327 0.815862 0 0.939175 0C1.06249 0 1.18459 0.024327 1.29849 0.0715891C1.41239 0.118851 1.51584 0.188119 1.60293 0.275425L6.56418 5.23855L11.5254 0.275425C11.6126 0.18826 11.7161 0.119117 11.83 0.071944C11.9438 0.0247707 12.0659 0.000490844 12.1892 0.000490844C12.3124 0.000490844 12.4345 0.0247707 12.5484 0.071944C12.6623 0.119117 12.7658 0.18826 12.8529 0.275425C12.9401 0.36259 13.0092 0.46607 13.0564 0.579956C13.1036 0.693843 13.1279 0.815906 13.1279 0.939175C13.1279 1.06245 13.1036 1.18451 13.0564 1.29839C13.0092 1.41228 12.9401 1.51576 12.8529 1.60293L7.8898 6.56418L12.8529 11.5254C12.9401 11.6126 13.0092 11.7161 13.0564 11.83C13.1036 11.9438 13.1279 12.0659 13.1279 12.1892C13.1279 12.3124 13.1036 12.4345 13.0564 12.5484C13.0092 12.6623 12.9401 12.7658 12.8529 12.8529C12.7658 12.9401 12.6623 13.0092 12.5484 13.0564C12.4345 13.1036 12.3124 13.1279 12.1892 13.1279C12.0659 13.1279 11.9438 13.1036 11.83 13.0564C11.7161 13.0092 11.6126 12.9401 11.5254 12.8529L6.56418 7.8898L1.60293 12.8529C1.51576 12.9401 1.41228 13.0092 1.29839 13.0564C1.18451 13.1036 1.06245 13.1279 0.939175 13.1279C0.815906 13.1279 0.693843 13.1036 0.579956 13.0564C0.46607 13.0092 0.36259 12.9401 0.275425 12.8529C0.18826 12.7658 0.119117 12.6623 0.071944 12.5484C0.0247707 12.4345 0.000490844 12.3124 0.000490844 12.1892C0.000490844 12.0659 0.0247707 11.9438 0.071944 11.83C0.119117 11.7161 0.18826 11.6126 0.275425 11.5254L5.23855 6.56418L0.275425 1.60293C0.188119 1.51584 0.118851 1.41239 0.0715891 1.29849C0.024327 1.18459 0 1.06249 0 0.939175C0 0.815862 0.024327 0.693759 0.0715891 0.579862C0.118851 0.465965 0.188119 0.362511 0.275425 0.275425Z" fill="white"/>
</svg>
