<svg width="16" height="14" viewBox="0 0 16 14" fill="none" xmlns="http://www.w3.org/2000/svg">
<path d="M0.5 8.8999C0.632608 8.8999 0.759785 8.95258 0.853553 9.04635C0.947322 9.14012 1 9.26729 1 9.3999V11.8999C1 12.1651 1.10536 12.4195 1.29289 12.607C1.48043 12.7945 1.73478 12.8999 2 12.8999H14C14.2652 12.8999 14.5196 12.7945 14.7071 12.607C14.8946 12.4195 15 12.1651 15 11.8999V9.3999C15 9.26729 15.0527 9.14012 15.1464 9.04635C15.2402 8.95258 15.3674 8.8999 15.5 8.8999C15.6326 8.8999 15.7598 8.95258 15.8536 9.04635C15.9473 9.14012 16 9.26729 16 9.3999V11.8999C16 12.4303 15.7893 12.939 15.4142 13.3141C15.0391 13.6892 14.5304 13.8999 14 13.8999H2C1.46957 13.8999 0.960859 13.6892 0.585786 13.3141C0.210714 12.939 0 12.4303 0 11.8999V9.3999C0 9.26729 0.0526784 9.14012 0.146447 9.04635C0.240215 8.95258 0.367392 8.8999 0.5 8.8999Z" fill="white"/>
<path d="M7.64602 10.854C7.69247 10.9006 7.74764 10.9375 7.80839 10.9627C7.86913 10.9879 7.93425 11.0009 8.00002 11.0009C8.06579 11.0009 8.13091 10.9879 8.19165 10.9627C8.2524 10.9375 8.30758 10.9006 8.35402 10.854L11.354 7.854C11.4479 7.76011 11.5007 7.63278 11.5007 7.5C11.5007 7.36722 11.4479 7.23989 11.354 7.146C11.2601 7.05211 11.1328 6.99937 11 6.99937C10.8672 6.99937 10.7399 7.05211 10.646 7.146L8.50002 9.293V0.5C8.50002 0.367392 8.44734 0.240215 8.35358 0.146447C8.25981 0.0526784 8.13263 0 8.00002 0C7.86741 0 7.74024 0.0526784 7.64647 0.146447C7.5527 0.240215 7.50002 0.367392 7.50002 0.5V9.293L5.35402 7.146C5.26013 7.05211 5.1328 6.99937 5.00002 6.99937C4.86725 6.99937 4.73991 7.05211 4.64602 7.146C4.55213 7.23989 4.49939 7.36722 4.49939 7.5C4.49939 7.63278 4.55213 7.76011 4.64602 7.854L7.64602 10.854Z" fill="white"/>
</svg>
