<svg width="17" height="10" viewBox="0 0 17 10" fill="none" xmlns="http://www.w3.org/2000/svg">
<path d="M5.66667 9.28571C5.66667 9.09627 5.74129 8.91459 5.87413 8.78064C6.00697 8.64668 6.18714 8.57143 6.375 8.57143H10.625C10.8129 8.57143 10.993 8.64668 11.1259 8.78064C11.2587 8.91459 11.3333 9.09627 11.3333 9.28571C11.3333 9.47515 11.2587 9.65684 11.1259 9.79079C10.993 9.92475 10.8129 10 10.625 10H6.375C6.18714 10 6.00697 9.92475 5.87413 9.79079C5.74129 9.65684 5.66667 9.47515 5.66667 9.28571ZM2.83333 5C2.83333 4.81056 2.90796 4.62888 3.0408 4.49492C3.17364 4.36097 3.3538 4.28571 3.54167 4.28571H13.4583C13.6462 4.28571 13.8264 4.36097 13.9592 4.49492C14.092 4.62888 14.1667 4.81056 14.1667 5C14.1667 5.18944 14.092 5.37112 13.9592 5.50508C13.8264 5.63903 13.6462 5.71429 13.4583 5.71429H3.54167C3.3538 5.71429 3.17364 5.63903 3.0408 5.50508C2.90796 5.37112 2.83333 5.18944 2.83333 5ZM0 0.714286C0 0.524845 0.0746279 0.343164 0.207466 0.20921C0.340304 0.075255 0.520472 0 0.708333 0H16.2917C16.4795 0 16.6597 0.075255 16.7925 0.20921C16.9254 0.343164 17 0.524845 17 0.714286C17 0.903726 16.9254 1.08541 16.7925 1.21936C16.6597 1.35332 16.4795 1.42857 16.2917 1.42857H0.708333C0.520472 1.42857 0.340304 1.35332 0.207466 1.21936C0.0746279 1.08541 0 0.903726 0 0.714286Z" fill="white"/>
</svg>
