<svg width="27" height="27" viewBox="0 0 27 27" fill="none" xmlns="http://www.w3.org/2000/svg">
<circle cx="13.5" cy="13.5" r="13.5" fill="#30273F"/>
<path d="M13.5 20.0625C11.7595 20.0625 10.0903 19.3711 8.85961 18.1404C7.6289 16.9097 6.9375 15.2405 6.9375 13.5C6.9375 11.7595 7.6289 10.0903 8.85961 8.85961C10.0903 7.6289 11.7595 6.9375 13.5 6.9375C15.2405 6.9375 16.9097 7.6289 18.1404 8.85961C19.3711 10.0903 20.0625 11.7595 20.0625 13.5C20.0625 15.2405 19.3711 16.9097 18.1404 18.1404C16.9097 19.3711 15.2405 20.0625 13.5 20.0625ZM13.5 21C15.4891 21 17.3968 20.2098 18.8033 18.8033C20.2098 17.3968 21 15.4891 21 13.5C21 11.5109 20.2098 9.60322 18.8033 8.1967C17.3968 6.79018 15.4891 6 13.5 6C11.5109 6 9.60322 6.79018 8.1967 8.1967C6.79018 9.60322 6 11.5109 6 13.5C6 15.4891 6.79018 17.3968 8.1967 18.8033C9.60322 20.2098 11.5109 21 13.5 21Z" fill="white"/>
<path d="M14.3718 12.1762L12.225 12.4453L12.1481 12.8016L12.57 12.8794C12.8456 12.945 12.9 13.0444 12.84 13.3191L12.1481 16.5703C11.9662 17.4113 12.2465 17.8069 12.9056 17.8069C13.4165 17.8069 14.01 17.5706 14.279 17.2463L14.3615 16.8563C14.174 17.0213 13.9003 17.0869 13.7184 17.0869C13.4606 17.0869 13.3668 16.9059 13.4334 16.5872L14.3718 12.1762ZM14.4375 10.2188C14.4375 10.4674 14.3387 10.7058 14.1629 10.8817C13.9871 11.0575 13.7486 11.1563 13.5 11.1563C13.2513 11.1563 13.0129 11.0575 12.837 10.8817C12.6612 10.7058 12.5625 10.4674 12.5625 10.2188C12.5625 9.97011 12.6612 9.73165 12.837 9.55584C13.0129 9.38002 13.2513 9.28125 13.5 9.28125C13.7486 9.28125 13.9871 9.38002 14.1629 9.55584C14.3387 9.73165 14.4375 9.97011 14.4375 10.2188Z" fill="white"/>
</svg>
