<svg width="15" height="15" viewBox="0 0 15 15" fill="none" xmlns="http://www.w3.org/2000/svg">
<path fill-rule="evenodd" clip-rule="evenodd" d="M7.5 0C7.58698 2.9208e-06 7.67224 0.0242236 7.74625 0.0699523C7.82026 0.115681 7.8801 0.181114 7.91906 0.258932L8.25938 0.938158H12.6562C13.0292 0.938158 13.3869 1.08642 13.6506 1.35033C13.9143 1.61424 14.0625 1.97217 14.0625 2.3454V10.3197H14.5312C14.6556 10.3197 14.7748 10.3692 14.8627 10.4571C14.9506 10.5451 15 10.6644 15 10.7888C15 10.9132 14.9506 11.0325 14.8627 11.1205C14.7748 11.2085 14.6556 11.2579 14.5312 11.2579H11.85L12.6422 14.4279C12.6691 14.5475 12.6481 14.6728 12.5839 14.7771C12.5196 14.8814 12.4171 14.9564 12.2983 14.986C12.1795 15.0157 12.0539 14.9977 11.9482 14.9358C11.8425 14.8739 11.7652 14.7731 11.7328 14.655L11.3531 13.1342H3.64688L3.26719 14.655C3.23481 14.7731 3.15751 14.8739 3.05182 14.9358C2.94614 14.9977 2.82046 15.0157 2.70166 14.986C2.58286 14.9564 2.48037 14.8814 2.41612 14.7771C2.35186 14.6728 2.33093 14.5475 2.35781 14.4279L3.15 11.2579H0.46875C0.34443 11.2579 0.225201 11.2085 0.137294 11.1205C0.049386 11.0325 0 10.9132 0 10.7888C0 10.6644 0.049386 10.5451 0.137294 10.4571C0.225201 10.3692 0.34443 10.3197 0.46875 10.3197H0.9375V2.3454C0.9375 1.97217 1.08566 1.61424 1.34938 1.35033C1.6131 1.08642 1.97079 0.938158 2.34375 0.938158H6.74156L7.08094 0.258932C7.1199 0.181114 7.17974 0.115681 7.25375 0.0699523C7.32776 0.0242236 7.41302 2.9208e-06 7.5 0ZM1.875 10.3197H13.125V2.3454C13.125 2.22099 13.0756 2.10168 12.9877 2.01371C12.8998 1.92574 12.7806 1.87632 12.6562 1.87632H2.34375C2.21943 1.87632 2.1002 1.92574 2.01229 2.01371C1.92439 2.10168 1.875 2.22099 1.875 2.3454V10.3197ZM10.8844 11.2579H4.11562L3.88125 12.1961H11.1187L10.8844 11.2579Z" fill="white"/>
</svg>
