<svg width="13" height="13" viewBox="0 0 13 13" fill="none" xmlns="http://www.w3.org/2000/svg">
<path fill-rule="evenodd" clip-rule="evenodd" d="M0 0H0.8125V12.1875H13V13H0V0ZM8.125 2.84375C8.125 2.73601 8.1678 2.63267 8.24399 2.55649C8.32017 2.4803 8.42351 2.4375 8.53125 2.4375H11.7812C11.889 2.4375 11.9923 2.4803 12.0685 2.55649C12.1447 2.63267 12.1875 2.73601 12.1875 2.84375V6.09375C12.1875 6.20149 12.1447 6.30483 12.0685 6.38101C11.9923 6.4572 11.889 6.5 11.7812 6.5C11.6735 6.5 11.5702 6.4572 11.494 6.38101C11.4178 6.30483 11.375 6.20149 11.375 6.09375V3.98125L8.43944 7.57006C8.4035 7.61393 8.35878 7.64978 8.30815 7.67532C8.25752 7.70086 8.20211 7.71551 8.14547 7.71835C8.08884 7.72118 8.03224 7.71212 7.97932 7.69176C7.9264 7.6714 7.87832 7.64018 7.83819 7.60012L5.73625 5.49819L2.76575 9.58262C2.70077 9.66525 2.60629 9.71948 2.50216 9.7339C2.39804 9.74833 2.29237 9.72183 2.20738 9.65997C2.12238 9.59812 2.06467 9.50573 2.04637 9.40221C2.02807 9.2987 2.05061 9.19212 2.10925 9.10488L5.35925 4.63612C5.39375 4.58861 5.43813 4.54913 5.48936 4.52041C5.54058 4.4917 5.59741 4.47443 5.65595 4.4698C5.71449 4.46517 5.77333 4.47328 5.82844 4.49357C5.88354 4.51387 5.93358 4.54587 5.97512 4.58738L8.09494 6.708L10.9241 3.25H8.53125C8.42351 3.25 8.32017 3.2072 8.24399 3.13101C8.1678 3.05483 8.125 2.95149 8.125 2.84375Z" fill="white"/>
</svg>
